<svg version="1.0" xmlns="http://www.w3.org/2000/svg" viewBox="64 87 210 75" color-interpolation-filters="sRGB" style="margin:auto;">
  <g fill="#024251">
    <g transform="translate(195.48 87.802)" mask="url(#a)">
      <path class="image-rect" fill="none" d="M0 0h75v74.397H0z"/>
      <svg width="75" height="74.397" class="image-svg-svg primary" style="overflow:visible">
        <svg viewBox="0 0 272.118 269.929" xmlns="http://www.w3.org/2000/svg">
          <path fill="none" pointer-events="none" d="M0 0h272.118v269.929H0z"/>
          <g transform="translate(-384.881 -62.971)">
            <linearGradient id="b" gradientUnits="userSpaceOnUse" x1="920.923" y1="325.285" x2="920.923" y2="118.295" gradientTransform="matrix(-1 0 0 1 1373.093 0)">
              <stop offset="0" stop-color="#024251"/>
              <stop offset="1" stop-color="#00a76f"/>
            </linearGradient>
            <path class="st45" d="M460.7 118.3s-13.9 13.2 12.3 75.6c30.8 73.2-50.1 97.9-20.9 116.6 21.9 14.1 58.4 8.7 58.4 8.7v5.5s-75 9.2-104.4-47.3c-29.5-56.5-3.7-119.8 54.6-159.1zM432 297.2c-27.3-41.3-19.1-108.7 9.1-150.8-29.2 32.7-48.9 103.7-9.1 150.8z" fill="url(#b)"/>
            <linearGradient id="c" gradientUnits="userSpaceOnUse" x1="856.802" y1="193.713" x2="856.802" y2="66.773" gradientTransform="matrix(-1 0 0 1 1373.093 0)">
              <stop offset="0" stop-color="#00a76f"/>
              <stop offset="1" stop-color="#024251"/>
            </linearGradient>
            <path class="st46" d="M618.1 193.7s-4.5-18.6-71.6-27.1c-78.8-9.9-59.7-92.3-90.6-76.4-23.2 12-36.7 46.2-36.7 46.2l-4.8-2.8s29.5-69.5 93.2-66.8c63.7 2.8 105.6 56.8 110.5 126.9zM477.6 79.4c49.4-3 103.7 37.8 126.1 83.3-13.8-41.6-65.5-94.2-126.1-83.3z" fill="url(#c)"/>
            <linearGradient id="d" gradientUnits="userSpaceOnUse" x1="810.058" y1="309.876" x2="810.058" y2="145.981" gradientTransform="matrix(-1 0 0 1 1373.093 0)">
              <stop offset="0" stop-color="#00a76f"/>
              <stop offset="1" stop-color="#00a76f"/>
            </linearGradient>
            <path class="st47" d="M474.1 292.3s18.4 5.5 59.3-48.5c48-63.3 109.8-5.5 111.4-40.2 1.2-26-21.6-54.9-21.6-54.9l4.8-2.8s45.5 60.3 11.3 114.1c-34.3 53.9-102 63.2-165.2 32.3zm169.3-64.5c-22.1 44.3-84.5 70.9-135.2 67.5 42.9 8.9 114.3-9.5 135.2-67.5z" fill="url(#d)"/>
          </g>
        </svg>
      </svg>
    </g>
    <path d="M72.08 137.202q-1.16 0-1.86-.72-.7-.72-.7-1.88v-23.48q0-1.16.7-1.86.7-.7 1.86-.7 1.2 0 1.9.7t.7 1.86v23.48q0 1.16-.7 1.88t-1.9.72Zm19.6-20.28q3.52 0 5.24 2 1.72 2 1.72 6.04v9.84q0 1.12-.66 1.76-.66.64-1.82.64-1.16 0-1.84-.64-.68-.64-.68-1.76v-9.56q0-2.28-.86-3.32t-2.7-1.04q-2.16 0-3.46 1.36-1.3 1.36-1.3 3.64v8.92q0 1.12-.68 1.76-.68.64-1.84.64-1.16 0-1.82-.64-.66-.64-.66-1.76v-15.48q0-1.04.68-1.68.68-.64 1.84-.64 1.04 0 1.7.62.66.62.66 1.62v1.08q1-1.64 2.68-2.52 1.68-.88 3.8-.88Zm14 11.32q-1.16 0-1.74-.52-.58-.52-.58-1.44 0-.92.58-1.46.58-.54 1.74-.54h8.24q1.16 0 1.74.54.58.54.58 1.46 0 .92-.58 1.44-.58.52-1.74.52h-8.24Zm37.88-19.68q1.16 0 1.84.7.68.7.68 1.86v23.48q0 1.16-.7 1.88t-1.82.72q-1.16 0-1.84-.72-.68-.72-.68-1.88v-9.88H126.6v9.88q0 1.16-.7 1.88t-1.86.72q-1.12 0-1.82-.72t-.7-1.88v-23.48q0-1.16.68-1.86.68-.7 1.84-.7 1.16 0 1.86.7.7.7.7 1.86v9.44h14.44v-9.44q0-1.16.68-1.86.68-.7 1.84-.7Zm17.08 28.72q-3 0-5.26-1.24t-3.5-3.56q-1.24-2.32-1.24-5.4 0-3.08 1.24-5.38t3.5-3.54q2.26-1.24 5.26-1.24t5.26 1.24q2.26 1.24 3.48 3.54 1.22 2.3 1.22 5.38t-1.22 5.4q-1.22 2.32-3.48 3.56-2.26 1.24-5.26 1.24Zm-.04-3.88q2.44 0 3.72-1.6 1.28-1.6 1.28-4.72 0-3.08-1.28-4.7t-3.68-1.62q-2.4 0-3.7 1.62-1.3 1.62-1.3 4.7 0 3.12 1.28 4.72 1.28 1.6 3.68 1.6Zm29.56-16.4q1.16 0 1.84.64.68.64.68 1.72v15.52q0 1.04-.7 1.68-.7.64-1.82.64-1.08 0-1.72-.6-.64-.6-.64-1.64v-1q-.92 1.6-2.48 2.46-1.56.86-3.52.86-7.2 0-7.2-8.08v-9.84q0-1.08.68-1.72.68-.64 1.8-.64 1.16 0 1.84.64.68.64.68 1.72v9.88q0 2.08.84 3.08t2.64 1q2.08 0 3.34-1.38 1.26-1.38 1.26-3.66v-8.92q0-1.08.68-1.72.68-.64 1.8-.64Zm14.8 20.28q-4.36 0-7.04-1.72-1.28-.76-1.28-2.16 0-.8.44-1.3t1.08-.5q.68 0 1.88.64 1.28.6 2.34.92 1.06.32 2.7.32 1.68 0 2.62-.56.94-.56.94-1.56 0-.68-.38-1.08t-1.36-.74q-.98-.34-2.98-.78-3.56-.72-5.1-2.04-1.54-1.32-1.54-3.64 0-1.76 1.04-3.18 1.04-1.42 2.86-2.2 1.82-.78 4.14-.78 1.68 0 3.24.42 1.56.42 2.8 1.22 1.28.8 1.28 2.12 0 .8-.44 1.34t-1.08.54q-.44 0-.86-.18t-1.06-.54q-1.16-.6-2-.9-.84-.3-2.08-.3-1.48 0-2.34.6-.86.6-.86 1.64 0 1 .88 1.52t3.4 1.04q2.68.56 4.2 1.28t2.18 1.8q.66 1.08.66 2.76 0 2.72-2.26 4.36-2.26 1.64-6.02 1.64Zm27.8-5.68q.68 0 1.1.52.42.52.42 1.4 0 1.24-1.48 2.08-1.36.76-3.08 1.22-1.72.46-3.28.46-4.72 0-7.48-2.72-2.76-2.72-2.76-7.44 0-3 1.2-5.32 1.2-2.32 3.38-3.6 2.18-1.28 4.94-1.28 2.64 0 4.6 1.16 1.96 1.16 3.04 3.28t1.08 5q0 1.72-1.52 1.72h-11.8q.24 2.76 1.56 4.06 1.32 1.3 3.84 1.3 1.28 0 2.26-.32.98-.32 2.22-.88 1.2-.64 1.76-.64Zm-6.92-11.16q-2.04 0-3.26 1.28-1.22 1.28-1.46 3.68h9.04q-.08-2.44-1.2-3.7-1.12-1.26-3.12-1.26Z" data-gra="path-name" class="tp-name"/>
    <path d="M117.116 148.358q0-.94.27-1.7t.76-1.28q.49-.53 1.15-.81.66-.29 1.45-.29.81 0 1.36.31t.89.67l-.56.63q-.3-.31-.69-.52-.39-.21-.99-.21t-1.08.22q-.48.22-.82.64-.33.41-.52 1-.18.59-.18 1.32 0 .74.17 1.34.17.59.5 1.01.33.42.82.65.49.23 1.12.23.42 0 .8-.13.38-.12.62-.34v-2.05h-1.67v-.83h2.58v3.31q-.38.4-1.01.66-.63.25-1.43.25-.78 0-1.42-.27-.65-.28-1.12-.8-.47-.52-.73-1.28-.27-.77-.27-1.73Zm8.86-3.13v2.93h1.32q.92 0 1.42-.38.49-.38.49-1.14 0-.78-.49-1.1-.5-.31-1.42-.31h-1.32Zm4.45 7.07h-1.13l-1.89-3.32h-1.43v3.32h-1v-7.87h2.46q.6 0 1.11.11.51.12.88.38t.57.68q.2.42.2 1.04 0 .92-.48 1.47-.48.55-1.28.76l1.99 3.43Zm1.53 0v-7.87h4.53v.84h-3.54v2.47h2.99v.85h-2.99v2.86h3.66v.85h-4.65Zm6.32 0v-7.87h4.54v.84h-3.54v2.47h2.98v.85h-2.98v2.86h3.66v.85h-4.66Zm6.32 0v-7.87h1.04l2.84 4.94.85 1.63h.05q-.04-.6-.08-1.24t-.04-1.26v-4.07h.95v7.87h-1.03l-2.86-4.96-.85-1.62h-.05q.05.6.09 1.22.04.62.04 1.24v4.12h-.95Zm7.77 0v-7.87h.99v3.3h3.66v-3.3h1.01v7.87h-1.01v-3.71h-3.66v3.71h-.99Zm10.73.14q-.75 0-1.37-.28-.61-.29-1.06-.83-.44-.53-.69-1.29-.24-.76-.24-1.71t.24-1.7q.25-.75.69-1.27.45-.52 1.06-.8.62-.28 1.37-.28.74 0 1.36.29.62.28 1.07.8.45.52.69 1.27.25.75.25 1.69 0 .95-.25 1.71-.24.76-.69 1.29-.45.54-1.07.83-.62.28-1.36.28Zm0-.87q.52 0 .95-.23.43-.23.73-.65.31-.43.48-1.02.16-.6.16-1.34 0-.73-.16-1.32-.17-.59-.48-1-.3-.41-.73-.63-.43-.22-.95-.22-.53 0-.96.22-.42.22-.73.63-.31.41-.47 1-.17.59-.17 1.32 0 .74.17 1.34.16.59.47 1.02.31.42.73.65.43.23.96.23Zm5.02-2.52v-4.62h1v4.64q0 .71.14 1.19.15.48.39.77.25.29.59.41.33.13.72.13.39 0 .73-.13.33-.12.59-.41.25-.29.39-.77.15-.48.15-1.19v-4.64h.96v4.62q0 .95-.22 1.59-.22.65-.59 1.05-.38.41-.9.58-.51.17-1.11.17-.6 0-1.13-.17-.52-.17-.9-.58-.37-.4-.59-1.05-.22-.64-.22-1.59Zm7.08 2.23.6-.7q.42.45.99.72.57.27 1.19.27.78 0 1.21-.36.43-.35.43-.93 0-.3-.1-.51-.1-.21-.28-.36-.17-.15-.41-.27-.24-.12-.52-.25l-1.13-.49q-.27-.12-.56-.29-.29-.17-.52-.41-.22-.24-.37-.57-.14-.33-.14-.76 0-.44.18-.83.19-.38.52-.66t.78-.44q.45-.16.99-.16.71 0 1.31.27.6.27 1.02.71l-.54.64q-.36-.34-.8-.54-.44-.2-.99-.2-.66 0-1.06.31-.4.3-.4.84 0 .29.11.49t.31.35q.19.15.42.26.22.11.46.21l1.12.48q.34.14.64.33t.51.43q.22.25.34.58.13.33.13.76 0 .47-.19.88-.18.4-.53.71-.35.31-.84.48-.49.17-1.12.17-.82 0-1.53-.31-.71-.31-1.23-.85Zm6.99 1.02v-7.87h4.53v.84h-3.54v2.47h2.99v.85h-2.99v2.86h3.66v.85h-4.65Z" data-gra="path-slogan" class="tp-slogan" fill="#00a76f"/>
  </g>
  <mask id="a">
    <g fill="#fff">
      <path stroke-width="2" class="image-rect" d="M0 0h75v74.397H0z"/>
    </g>
    <g stroke="#000" stroke-width="6" stroke-linejoin="round">
      <path d="M-123.4 49.4q-1.16 0-1.86-.72-.7-.72-.7-1.88V23.32q0-1.16.7-1.86.7-.7 1.86-.7 1.2 0 1.9.7t.7 1.86V46.8q0 1.16-.7 1.88t-1.9.72Zm19.6-20.28q3.52 0 5.24 2 1.72 2 1.72 6.04V47q0 1.12-.66 1.76-.66.64-1.82.64-1.16 0-1.84-.64-.68-.64-.68-1.76v-9.56q0-2.28-.86-3.32t-2.7-1.04q-2.16 0-3.46 1.36-1.3 1.36-1.3 3.64V47q0 1.12-.68 1.76-.68.64-1.84.64-1.16 0-1.82-.64-.66-.64-.66-1.76V31.52q0-1.04.68-1.68.68-.64 1.84-.64 1.04 0 1.7.62.66.62.66 1.62v1.08q1-1.64 2.68-2.52 1.68-.88 3.8-.88Zm14 11.32q-1.16 0-1.74-.52-.58-.52-.58-1.44 0-.92.58-1.46.58-.54 1.74-.54h8.24q1.16 0 1.74.54.58.54.58 1.46 0 .92-.58 1.44-.58.52-1.74.52h-8.24Zm37.88-19.68q1.16 0 1.84.7.68.7.68 1.86V46.8q0 1.16-.7 1.88t-1.82.72q-1.16 0-1.84-.72-.68-.72-.68-1.88v-9.88h-14.44v9.88q0 1.16-.7 1.88t-1.86.72q-1.12 0-1.82-.72t-.7-1.88V23.32q0-1.16.68-1.86.68-.7 1.84-.7 1.16 0 1.86.7.7.7.7 1.86v9.44h14.44v-9.44q0-1.16.68-1.86.68-.7 1.84-.7Zm17.08 28.72q-3 0-5.26-1.24t-3.5-3.56q-1.24-2.32-1.24-5.4 0-3.08 1.24-5.38t3.5-3.54q2.26-1.24 5.26-1.24t5.26 1.24q2.26 1.24 3.48 3.54 1.22 2.3 1.22 5.38t-1.22 5.4q-1.22 2.32-3.48 3.56-2.26 1.24-5.26 1.24Zm-.04-3.88q2.44 0 3.72-1.6 1.28-1.6 1.28-4.72 0-3.08-1.28-4.7t-3.68-1.62q-2.4 0-3.7 1.62-1.3 1.62-1.3 4.7 0 3.12 1.28 4.72 1.28 1.6 3.68 1.6Zm29.56-16.4q1.16 0 1.84.64.68.64.68 1.72v15.52q0 1.04-.7 1.68-.7.64-1.82.64-1.08 0-1.72-.6-.64-.6-.64-1.64v-1q-.92 1.6-2.48 2.46-1.56.86-3.52.86-7.2 0-7.2-8.08v-9.84q0-1.08.68-1.72.68-.64 1.8-.64 1.16 0 1.84.64.68.64.68 1.72v9.88q0 2.08.84 3.08t2.64 1q2.08 0 3.34-1.38 1.26-1.38 1.26-3.66v-8.92q0-1.08.68-1.72.68-.64 1.8-.64Zm14.8 20.28q-4.36 0-7.04-1.72Q1.16 47 1.16 45.6q0-.8.44-1.3t1.08-.5q.68 0 1.88.64 1.28.6 2.34.92 1.06.32 2.7.32 1.68 0 2.62-.56.94-.56.94-1.56 0-.68-.38-1.08t-1.36-.74q-.98-.34-2.98-.78-3.56-.72-5.1-2.04Q1.8 37.6 1.8 35.28q0-1.76 1.04-3.18 1.04-1.42 2.86-2.2 1.82-.78 4.14-.78 1.68 0 3.24.42 1.56.42 2.8 1.22 1.28.8 1.28 2.12 0 .8-.44 1.34t-1.08.54q-.44 0-.86-.18t-1.06-.54q-1.16-.6-2-.9-.84-.3-2.08-.3-1.48 0-2.34.6-.86.6-.86 1.64 0 1 .88 1.52t3.4 1.04q2.68.56 4.2 1.28t2.18 1.8q.66 1.08.66 2.76 0 2.72-2.26 4.36-2.26 1.64-6.02 1.64Zm27.8-5.68q.68 0 1.1.52.42.52.42 1.4 0 1.24-1.48 2.08-1.36.76-3.08 1.22-1.72.46-3.28.46-4.72 0-7.48-2.72-2.76-2.72-2.76-7.44 0-3 1.2-5.32 1.2-2.32 3.38-3.6 2.18-1.28 4.94-1.28 2.64 0 4.6 1.16 1.96 1.16 3.04 3.28t1.08 5q0 1.72-1.52 1.72h-11.8q.24 2.76 1.56 4.06 1.32 1.3 3.84 1.3 1.28 0 2.26-.32.98-.32 2.22-.88 1.2-.64 1.76-.64Zm-6.92-11.16q-2.04 0-3.26 1.28-1.22 1.28-1.46 3.68h9.04q-.08-2.44-1.2-3.7-1.12-1.26-3.12-1.26Z" data-gra="path-name" class="tp-name"/>
    </g>
  </mask>
</svg>
